<?xml version="1.0" encoding="UTF-8" standalone="no"?><!DOCTYPE svg PUBLIC "-//W3C//DTD SVG 1.1//EN" "http://www.w3.org/Graphics/SVG/1.1/DTD/svg11.dtd"><svg width="100%" height="100%" viewBox="0 0 53 53" version="1.1" xmlns="http://www.w3.org/2000/svg" xmlns:xlink="http://www.w3.org/1999/xlink" xml:space="preserve" xmlns:serif="http://www.serif.com/" style="fill-rule:evenodd;clip-rule:evenodd;stroke-linejoin:round;stroke-miterlimit:2;"><rect id="アートボード1" x="0" y="-0" width="52.083" height="52.056" style="fill:none;"/><clipPath id="_clip1"><rect x="0" y="-0" width="52.083" height="52.056"/></clipPath><g clip-path="url(#_clip1)"><g><g><path d="M17.605,14.113c1.125,0.983 1.582,2.148 2.563,3.17c2.407,2.507 4.811,5.102 7.423,7.551c4.352,4.079 10.045,7.577 14.675,11.435" style="fill:none;stroke:#fff;stroke-width:19.17px;stroke-linecap:round;stroke-miterlimit:1.5;"/><path d="M40.824,11.292c-0.914,2.03 -3.668,3.898 -5.723,5.559c-2.684,2.171 -5.276,4.398 -7.941,6.581c-7.278,5.958 -12.955,12.359 -18.301,19.04" style="fill:none;stroke:#fff;stroke-width:19.17px;stroke-linecap:round;stroke-miterlimit:1.5;"/></g><g><path d="M17.605,14.113c1.125,0.983 1.582,2.148 2.563,3.17c2.407,2.507 4.811,5.102 7.423,7.551c4.352,4.079 10.045,7.577 14.675,11.435" style="fill:none;stroke:#f9a83a;stroke-width:12.5px;stroke-linecap:round;stroke-miterlimit:1.5;"/><path d="M40.824,11.292c-0.914,2.03 -3.668,3.898 -5.723,5.559c-2.684,2.171 -5.276,4.398 -7.941,6.581c-7.278,5.958 -12.955,12.359 -18.301,19.04" style="fill:none;stroke:#f9a83a;stroke-width:12.5px;stroke-linecap:round;stroke-miterlimit:1.5;"/></g><g><path d="M16.783,15.055c0.264,0.231 0.482,0.475 0.679,0.725c0.621,0.785 1.078,1.612 1.804,2.368c1.456,1.517 2.91,3.065 4.41,4.594c0.996,1.015 2.012,2.021 3.06,3.004c1.353,1.268 2.831,2.481 4.368,3.666c3.429,2.643 7.152,5.143 10.362,7.817c0.53,0.442 1.319,0.37 1.76,-0.16c0.442,-0.53 0.37,-1.319 -0.16,-1.76c-3.233,-2.694 -6.982,-5.215 -10.435,-7.877c-1.472,-1.135 -2.89,-2.296 -4.185,-3.51c-1.023,-0.959 -2.014,-1.941 -2.985,-2.931c-1.494,-1.522 -2.942,-3.064 -4.392,-4.574c-0.667,-0.695 -1.075,-1.465 -1.645,-2.187c-0.288,-0.365 -0.61,-0.72 -0.997,-1.058c-0.52,-0.454 -1.31,-0.4 -1.764,0.119c-0.453,0.52 -0.4,1.31 0.12,1.764Z" style="fill:#fff;"/><path d="M39.685,10.779c-0.331,0.733 -0.963,1.428 -1.694,2.108c-1.138,1.059 -2.52,2.058 -3.676,2.992l-7.947,6.585c-3.596,2.944 -6.805,5.995 -9.778,9.133c-3.104,3.276 -5.949,6.648 -8.707,10.094c-0.431,0.539 -0.343,1.326 0.195,1.757c0.539,0.431 1.326,0.344 1.757,-0.195c2.715,-3.392 5.515,-6.712 8.57,-9.937c2.903,-3.064 6.036,-6.043 9.547,-8.917l7.935,-6.576c1.418,-1.146 3.155,-2.393 4.43,-3.716c0.716,-0.743 1.293,-1.516 1.647,-2.301c0.283,-0.629 0.003,-1.37 -0.626,-1.653c-0.629,-0.284 -1.37,-0.003 -1.653,0.626Z" style="fill:#fff;"/></g></g></g></svg>